# Blender 3.6.1
# www.blender.org
mtllib ferris_wheel_car.mtl
o Cylinder
v 0.000000 -0.164562 -1.000000
v 0.000000 1.835438 -1.000000
v 0.707107 -0.164562 -0.707107
v 0.707107 1.835438 -0.707107
v 1.000000 -0.164562 0.000000
v 1.000000 1.835438 0.000000
v 0.707107 -0.164562 0.707107
v 0.707107 1.835438 0.707107
v 0.000000 -0.164562 1.000000
v 0.000000 1.835438 1.000000
v -0.707107 -0.164562 0.707107
v -0.707107 1.835438 0.707107
v -1.000000 -0.164562 0.000000
v -1.000000 1.835438 0.000000
v -0.707107 -0.164562 -0.707107
v -0.707107 1.835438 -0.707107
v -0.000000 -0.603429 -0.535336
v 0.378540 -0.603429 -0.378540
v 0.378540 2.274305 -0.378540
v -0.000000 2.274305 -0.535336
v 0.535336 -0.603429 0.000000
v 0.535336 2.274305 0.000000
v 0.378540 -0.603429 0.378540
v 0.378540 2.274305 0.378540
v -0.000000 -0.603429 0.535336
v -0.000000 2.274305 0.535336
v -0.378540 -0.603429 0.378540
v -0.378540 2.274305 0.378540
v -0.535336 -0.603429 0.000000
v -0.535336 2.274305 0.000000
v -0.378540 -0.603429 -0.378540
v -0.378540 2.274305 -0.378540
v -0.000000 -0.603429 -0.791810
v 0.559894 -0.603429 -0.559894
v 0.559894 2.274305 -0.559894
v -0.000000 2.274305 -0.791810
v 0.791810 -0.603429 0.000000
v 0.791810 2.274305 0.000000
v 0.559894 -0.603429 0.559894
v 0.559894 2.274305 0.559894
v -0.000000 -0.603429 0.791810
v -0.000000 2.274305 0.791810
v -0.559894 -0.603429 0.559894
v -0.559894 2.274305 0.559894
v -0.791810 -0.603429 0.000000
v -0.791810 2.274305 0.000000
v -0.559894 -0.603429 -0.559894
v -0.559894 2.274305 -0.559894
v -0.000000 -0.771892 -0.379164
v 0.268109 -0.771892 -0.268110
v 0.268109 2.442768 -0.268110
v -0.000000 2.442768 -0.379164
v 0.379164 -0.771892 0.000000
v 0.379164 2.442768 0.000000
v 0.268109 -0.771892 0.268110
v 0.268110 2.442768 0.268110
v -0.000000 -0.771892 0.379164
v -0.000000 2.442768 0.379164
v -0.268110 -0.771892 0.268110
v -0.268110 2.442768 0.268110
v -0.379164 -0.771892 0.000000
v -0.379164 2.442768 0.000000
v -0.268110 -0.771892 -0.268110
v -0.268110 2.442768 -0.268110
v -0.000000 -0.771892 -0.535336
v 0.378540 -0.771892 -0.378540
v 0.378540 2.442768 -0.378540
v -0.000000 2.442768 -0.535336
v 0.535336 -0.771892 0.000000
v 0.535336 2.442768 0.000000
v 0.378540 -0.771892 0.378540
v 0.378540 2.442768 0.378540
v -0.000000 -0.771892 0.535336
v -0.000000 2.442768 0.535336
v -0.378540 -0.771892 0.378540
v -0.378540 2.442768 0.378540
v -0.535336 -0.771892 0.000000
v -0.535336 2.442768 0.000000
v -0.378540 -0.771892 -0.378540
v -0.378540 2.442768 -0.378540
v 0.268110 3.087712 -0.268110
v 0.000000 3.087712 -0.379164
v 0.379164 3.087712 0.000000
v 0.268110 3.087712 0.268110
v 0.000000 3.087712 0.379164
v -0.268110 3.087712 0.268110
v -0.379164 3.087712 0.000000
v -0.268110 3.087712 -0.268110
v 0.136518 -0.016796 -0.943452
v 0.136518 1.687672 -0.943452
v 0.570589 1.687672 -0.763654
v 0.570589 -0.016796 -0.763654
v 0.763654 -0.016796 -0.570589
v 0.763654 1.687672 -0.570589
v 0.943452 1.687672 -0.136518
v 0.943452 -0.016796 -0.136518
v 0.943452 -0.016796 0.136518
v 0.943452 1.687672 0.136518
v 0.763654 1.687672 0.570589
v 0.763654 -0.016796 0.570589
v 0.570589 -0.016796 0.763654
v 0.570589 1.687672 0.763654
v 0.136518 1.687672 0.943452
v 0.136518 -0.016796 0.943452
v -0.136518 -0.016796 0.943452
v -0.136518 1.687672 0.943452
v -0.570589 1.687672 0.763654
v -0.570589 -0.016796 0.763654
v -0.763654 -0.016796 0.570589
v -0.763654 1.687672 0.570589
v -0.943452 1.687672 0.136518
v -0.943452 -0.016796 0.136518
v -0.943452 -0.016796 -0.136518
v -0.943452 1.687672 -0.136518
v -0.763654 1.687672 -0.570589
v -0.763654 -0.016796 -0.570589
v -0.570589 -0.016796 -0.763654
v -0.570589 1.687672 -0.763654
v -0.136518 1.687672 -0.943452
v -0.136518 -0.016796 -0.943452
v 0.062731 -0.016796 -0.765314
v 0.062731 1.687672 -0.765314
v 0.496801 -0.016796 -0.585516
v 0.496801 1.687672 -0.585516
v 0.585516 1.687672 -0.496801
v 0.585516 -0.016796 -0.496801
v 0.765314 -0.016796 -0.062731
v 0.765314 1.687672 -0.062731
v 0.765314 1.687672 0.062731
v 0.765314 -0.016796 0.062731
v 0.585516 -0.016796 0.496801
v 0.585516 1.687672 0.496801
v 0.496801 1.687672 0.585516
v 0.496801 -0.016796 0.585516
v 0.062731 -0.016796 0.765314
v 0.062731 1.687672 0.765314
v -0.062731 1.687672 0.765314
v -0.062731 -0.016796 0.765314
v -0.496801 -0.016796 0.585516
v -0.496801 1.687672 0.585516
v -0.585516 1.687672 0.496801
v -0.585516 -0.016796 0.496801
v -0.765314 -0.016796 0.062731
v -0.765314 1.687672 0.062731
v -0.765314 1.687672 -0.062731
v -0.765314 -0.016796 -0.062731
v -0.585516 -0.016796 -0.496801
v -0.585516 1.687672 -0.496801
v -0.496801 1.687672 -0.585516
v -0.496801 -0.016796 -0.585516
v -0.062731 -0.016796 -0.765314
v -0.062731 1.687672 -0.765314
vn -0.0000 -1.0000 -0.0000
vn -0.0000 1.0000 -0.0000
vn -0.9239 -0.0000 -0.3827
vn 0.3827 -0.0000 0.9239
vn -0.3827 -0.0000 0.9239
vn 0.3505 -0.4014 0.8462
vn 0.9239 -0.0000 -0.3827
vn -0.8462 0.4014 0.3505
vn -0.3827 -0.0000 -0.9239
vn 0.3505 0.4014 0.8462
vn 0.8462 -0.4014 -0.3505
vn -0.8462 -0.4014 -0.3505
vn 0.8462 0.4014 -0.3505
vn -0.8462 0.4014 -0.3505
vn -0.3505 -0.4014 0.8462
vn -0.3505 0.4014 0.8462
vn 0.8462 -0.4014 0.3505
vn -0.3505 -0.4014 -0.8462
vn 0.3505 -0.4014 -0.8462
vn 0.8462 0.4014 0.3505
vn -0.3505 0.4014 -0.8462
vn 0.3505 0.4014 -0.8462
vn -0.8462 -0.4014 0.3505
vn 0.3827 -0.0000 -0.9239
vn -0.9239 -0.0000 0.3827
vn 0.9239 -0.0000 0.3827
vt 0.024133 0.963058
vt 0.100867 0.963058
vt 0.725867 0.536942
vt 0.649133 0.536942
vt 0.100867 0.536942
vt 0.024133 0.536942
vt 0.899133 0.963058
vt 0.899133 0.536942
vt 0.274133 0.536942
vt 0.274133 0.963058
vt 0.725867 0.963058
vt 0.500000 0.500000
vt 0.625000 0.500000
vt 0.975867 0.963058
vt 0.375000 1.000000
vt 0.250000 1.000000
vt 0.750000 0.412262
vt 0.635264 0.364737
vt 0.750000 0.087738
vt 0.864736 0.135264
vt 0.625000 1.000000
vt 0.500000 1.000000
vt 0.750000 0.500000
vt 0.875000 0.500000
vt 0.250000 0.500000
vt 0.125000 0.500000
vt 0.875000 1.000000
vt 0.750000 1.000000
vt 0.125000 1.000000
vt 0.375000 0.500000
vt 0.000000 0.500000
vt 1.000000 0.500000
vt 0.000000 1.000000
vt 1.000000 1.000000
vt 0.919706 0.419706
vt 0.864736 0.364737
vt 0.364737 0.364737
vt 0.250000 0.490000
vt 0.250000 0.412262
vt 0.990000 0.250000
vt 0.912262 0.250000
vt 0.412262 0.250000
vt 0.419706 0.419706
vt 0.919706 0.080294
vt 0.364736 0.135264
vt 0.490000 0.250000
vt 0.750000 0.010000
vt 0.250000 0.087738
vt 0.419706 0.080294
vt 0.580294 0.080294
vt 0.635263 0.135264
vt 0.135264 0.135264
vt 0.250000 0.010000
vt 0.510000 0.250000
vt 0.587738 0.250000
vt 0.087738 0.250000
vt 0.080294 0.080294
vt 0.580294 0.419706
vt 0.135264 0.364737
vt 0.010000 0.250000
vt 0.750000 0.490000
vt 0.080294 0.419706
vt 0.250000 0.135074
vt 0.168735 0.168735
vt 0.831265 0.168735
vt 0.668735 0.168735
vt 0.668735 0.331265
vt 0.750000 0.364926
vt 0.831265 0.331265
vt 0.331265 0.331265
vt 0.250000 0.364926
vt 0.864926 0.250000
vt 0.364926 0.250000
vt 0.331265 0.168735
vt 0.750000 0.135074
vt 0.635074 0.250000
vt 0.168735 0.331265
vt 0.135074 0.250000
vt 0.975867 0.536942
vt 0.850867 0.536942
vt 0.850867 0.963058
vt 0.774133 0.963058
vt 0.774133 0.536942
vt 0.649133 0.963058
vt 0.600867 0.536942
vt 0.600867 0.963058
vt 0.524133 0.963058
vt 0.524133 0.536942
vt 0.475867 0.536942
vt 0.475867 0.963058
vt 0.399133 0.963058
vt 0.399133 0.536942
vt 0.350867 0.536942
vt 0.350867 0.963058
vt 0.225867 0.536942
vt 0.225867 0.963058
vt 0.149133 0.963058
vt 0.149133 0.536942
s 0
f 119/1/1 149/2/1 118/2/1
f 97/3/2 131/4/2 100/4/2
f 117/5/2 151/6/2 120/6/2
f 91/7/3 123/8/3 124/7/3
f 112/9/4 144/10/4 111/10/4
f 98/11/5 130/3/5 97/3/5
f 9/12/6 39/13/6 7/13/6
f 117/5/7 149/2/7 150/5/7
f 91/7/1 122/14/1 90/14/1
f 12/15/8 46/16/8 14/16/8
f 17/17/9 79/18/9 31/18/9
f 25/19/4 71/20/4 23/20/4
f 8/21/10 42/22/10 10/22/10
f 5/23/11 34/24/11 3/24/11
f 13/25/12 47/26/12 45/25/12
f 4/27/13 38/28/13 6/28/13
f 14/16/14 48/29/14 16/29/14
f 11/30/15 41/12/15 9/12/15
f 10/22/16 44/15/16 12/15/16
f 7/13/17 37/23/17 5/23/17
f 1/31/18 47/26/18 15/26/18
f 3/24/19 33/32/19 1/32/19
f 8/21/20 38/28/20 40/21/20
f 16/29/21 36/33/21 2/33/21
f 2/34/22 35/27/22 4/27/22
f 11/30/23 45/25/23 43/30/23
f 17/17/1 34/35/1 18/36/1
f 19/37/2 36/38/2 20/39/2
f 18/36/1 37/40/1 21/41/1
f 22/42/2 35/43/2 19/37/2
f 23/20/1 37/40/1 39/44/1
f 24/45/2 38/46/2 22/42/2
f 23/20/1 41/47/1 25/19/1
f 26/48/2 40/49/2 24/45/2
f 25/19/1 43/50/1 27/51/1
f 28/52/2 42/53/2 26/48/2
f 27/51/1 45/54/1 29/55/1
f 30/56/2 44/57/2 28/52/2
f 29/55/1 47/58/1 31/18/1
f 32/59/2 46/60/2 30/56/2
f 31/18/1 33/61/1 17/17/1
f 20/39/2 48/62/2 32/59/2
f 58/63/5 86/64/5 60/64/5
f 55/65/1 59/66/1 63/67/1
f 24/45/4 74/48/4 26/48/4
f 18/36/24 65/17/24 17/17/24
f 32/59/9 68/39/9 20/39/9
f 27/51/5 73/19/5 25/19/5
f 20/39/24 67/37/24 19/37/24
f 28/52/5 74/48/5 76/52/5
f 21/41/7 66/36/7 18/36/7
f 29/55/25 75/51/25 27/51/25
f 19/37/7 70/42/7 22/42/7
f 28/52/25 78/56/25 30/56/25
f 23/20/26 69/41/26 21/41/26
f 31/18/3 77/55/3 29/55/3
f 22/42/26 72/45/26 24/45/26
f 30/56/3 80/59/3 32/59/3
f 49/68/1 66/36/1 50/69/1
f 51/70/2 68/39/2 52/71/2
f 50/69/1 69/41/1 53/72/1
f 54/73/2 67/37/2 51/70/2
f 55/65/1 69/41/1 71/20/1
f 56/74/2 70/42/2 54/73/2
f 57/75/1 71/20/1 73/19/1
f 58/63/2 72/45/2 56/74/2
f 59/66/1 73/19/1 75/51/1
f 58/63/2 76/52/2 74/48/2
f 59/66/1 77/55/1 61/76/1
f 60/64/2 78/56/2 76/52/2
f 61/76/1 79/18/1 63/67/1
f 64/77/2 78/56/2 62/78/2
f 49/68/1 79/18/1 65/17/1
f 52/71/2 80/59/2 64/77/2
f 87/78/2 85/63/2 83/73/2
f 56/74/4 85/63/4 58/63/4
f 54/73/26 84/74/26 56/74/26
f 54/73/7 81/70/7 83/73/7
f 51/70/24 82/71/24 81/70/24
f 64/77/9 82/71/9 52/71/9
f 62/78/3 88/77/3 64/77/3
f 60/64/25 87/78/25 62/78/25
f 2/34/24 89/79/24 1/32/24
f 4/27/24 90/14/24 2/34/24
f 3/24/24 91/7/24 4/27/24
f 1/32/24 92/8/24 3/24/24
f 4/27/7 93/80/7 3/24/7
f 6/28/7 94/81/7 4/27/7
f 5/23/7 95/82/7 6/28/7
f 3/24/7 96/83/7 5/23/7
f 6/28/26 97/3/26 5/23/26
f 8/21/26 98/11/26 6/28/26
f 7/13/26 99/84/26 8/21/26
f 5/23/26 100/4/26 7/13/26
f 8/21/4 101/85/4 7/13/4
f 10/22/4 102/86/4 8/21/4
f 9/12/4 103/87/4 10/22/4
f 7/13/4 104/88/4 9/12/4
f 10/22/5 105/89/5 9/12/5
f 12/15/5 106/90/5 10/22/5
f 11/30/5 107/91/5 12/15/5
f 9/12/5 108/92/5 11/30/5
f 12/15/25 109/93/25 11/30/25
f 14/16/25 110/94/25 12/15/25
f 13/25/25 111/10/25 14/16/25
f 11/30/25 112/9/25 13/25/25
f 14/16/3 113/95/3 13/25/3
f 16/29/3 114/96/3 14/16/3
f 15/26/3 115/97/3 16/29/3
f 13/25/3 116/98/3 15/26/3
f 16/29/9 117/5/9 15/26/9
f 2/33/9 118/2/9 16/29/9
f 1/31/9 119/1/9 2/33/9
f 15/26/9 120/6/9 1/31/9
f 122/14/24 123/8/24 121/79/24
f 125/81/7 127/83/7 126/80/7
f 129/11/26 131/4/26 130/3/26
f 133/86/4 135/88/4 134/85/4
f 137/90/5 139/92/5 138/89/5
f 141/94/25 143/9/25 142/93/25
f 145/96/3 147/98/3 146/95/3
f 149/2/9 151/6/9 150/5/9
f 99/84/1 129/11/1 98/11/1
f 106/90/3 138/89/3 105/89/3
f 120/6/25 152/1/25 119/1/25
f 99/84/24 131/4/24 132/84/24
f 105/89/2 139/92/2 108/92/2
f 107/91/1 137/90/1 106/90/1
f 114/96/24 146/95/24 113/95/24
f 93/80/4 125/81/4 126/80/4
f 107/91/26 139/92/26 140/91/26
f 113/95/2 147/98/2 116/98/2
f 93/80/2 127/83/2 96/83/2
f 115/97/1 145/96/1 114/96/1
f 95/82/1 125/81/1 94/81/1
f 101/85/25 133/86/25 134/85/25
f 115/97/5 147/98/5 148/97/5
f 96/83/9 128/82/9 95/82/9
f 101/85/2 135/88/2 104/88/2
f 103/87/1 133/86/1 102/86/1
f 109/93/9 141/94/9 142/93/9
f 90/14/26 121/79/26 89/79/26
f 104/88/7 136/87/7 103/87/7
f 109/93/2 143/9/2 112/9/2
f 89/79/2 123/8/2 92/8/2
f 111/10/1 141/94/1 110/94/1
f 119/1/1 152/1/1 149/2/1
f 97/3/2 130/3/2 131/4/2
f 117/5/2 150/5/2 151/6/2
f 91/7/3 92/8/3 123/8/3
f 112/9/4 143/9/4 144/10/4
f 98/11/5 129/11/5 130/3/5
f 9/12/6 41/12/6 39/13/6
f 117/5/7 118/2/7 149/2/7
f 91/7/1 124/7/1 122/14/1
f 12/15/8 44/15/8 46/16/8
f 17/17/9 65/17/9 79/18/9
f 25/19/4 73/19/4 71/20/4
f 8/21/10 40/21/10 42/22/10
f 5/23/11 37/23/11 34/24/11
f 13/25/12 15/26/12 47/26/12
f 4/27/13 35/27/13 38/28/13
f 14/16/14 46/16/14 48/29/14
f 11/30/15 43/30/15 41/12/15
f 10/22/16 42/22/16 44/15/16
f 7/13/17 39/13/17 37/23/17
f 1/31/18 33/31/18 47/26/18
f 3/24/19 34/24/19 33/32/19
f 8/21/20 6/28/20 38/28/20
f 16/29/21 48/29/21 36/33/21
f 2/34/22 36/34/22 35/27/22
f 11/30/23 13/25/23 45/25/23
f 17/17/1 33/61/1 34/35/1
f 19/37/2 35/43/2 36/38/2
f 18/36/1 34/35/1 37/40/1
f 22/42/2 38/46/2 35/43/2
f 23/20/1 21/41/1 37/40/1
f 24/45/2 40/49/2 38/46/2
f 23/20/1 39/44/1 41/47/1
f 26/48/2 42/53/2 40/49/2
f 25/19/1 41/47/1 43/50/1
f 28/52/2 44/57/2 42/53/2
f 27/51/1 43/50/1 45/54/1
f 30/56/2 46/60/2 44/57/2
f 29/55/1 45/54/1 47/58/1
f 32/59/2 48/62/2 46/60/2
f 31/18/1 47/58/1 33/61/1
f 20/39/2 36/38/2 48/62/2
f 58/63/5 85/63/5 86/64/5
f 63/67/1 49/68/1 50/69/1
f 50/69/1 53/72/1 55/65/1
f 55/65/1 57/75/1 59/66/1
f 59/66/1 61/76/1 63/67/1
f 63/67/1 50/69/1 55/65/1
f 24/45/4 72/45/4 74/48/4
f 18/36/24 66/36/24 65/17/24
f 32/59/9 80/59/9 68/39/9
f 27/51/5 75/51/5 73/19/5
f 20/39/24 68/39/24 67/37/24
f 28/52/5 26/48/5 74/48/5
f 21/41/7 69/41/7 66/36/7
f 29/55/25 77/55/25 75/51/25
f 19/37/7 67/37/7 70/42/7
f 28/52/25 76/52/25 78/56/25
f 23/20/26 71/20/26 69/41/26
f 31/18/3 79/18/3 77/55/3
f 22/42/26 70/42/26 72/45/26
f 30/56/3 78/56/3 80/59/3
f 49/68/1 65/17/1 66/36/1
f 51/70/2 67/37/2 68/39/2
f 50/69/1 66/36/1 69/41/1
f 54/73/2 70/42/2 67/37/2
f 55/65/1 53/72/1 69/41/1
f 56/74/2 72/45/2 70/42/2
f 57/75/1 55/65/1 71/20/1
f 58/63/2 74/48/2 72/45/2
f 59/66/1 57/75/1 73/19/1
f 58/63/2 60/64/2 76/52/2
f 59/66/1 75/51/1 77/55/1
f 60/64/2 62/78/2 78/56/2
f 61/76/1 77/55/1 79/18/1
f 64/77/2 80/59/2 78/56/2
f 49/68/1 63/67/1 79/18/1
f 52/71/2 68/39/2 80/59/2
f 83/73/2 81/70/2 82/71/2
f 82/71/2 88/77/2 87/78/2
f 87/78/2 86/64/2 85/63/2
f 85/63/2 84/74/2 83/73/2
f 83/73/2 82/71/2 87/78/2
f 56/74/4 84/74/4 85/63/4
f 54/73/26 83/73/26 84/74/26
f 54/73/7 51/70/7 81/70/7
f 51/70/24 52/71/24 82/71/24
f 64/77/9 88/77/9 82/71/9
f 62/78/3 87/78/3 88/77/3
f 60/64/25 86/64/25 87/78/25
f 2/34/24 90/14/24 89/79/24
f 4/27/24 91/7/24 90/14/24
f 3/24/24 92/8/24 91/7/24
f 1/32/24 89/79/24 92/8/24
f 4/27/7 94/81/7 93/80/7
f 6/28/7 95/82/7 94/81/7
f 5/23/7 96/83/7 95/82/7
f 3/24/7 93/80/7 96/83/7
f 6/28/26 98/11/26 97/3/26
f 8/21/26 99/84/26 98/11/26
f 7/13/26 100/4/26 99/84/26
f 5/23/26 97/3/26 100/4/26
f 8/21/4 102/86/4 101/85/4
f 10/22/4 103/87/4 102/86/4
f 9/12/4 104/88/4 103/87/4
f 7/13/4 101/85/4 104/88/4
f 10/22/5 106/90/5 105/89/5
f 12/15/5 107/91/5 106/90/5
f 11/30/5 108/92/5 107/91/5
f 9/12/5 105/89/5 108/92/5
f 12/15/25 110/94/25 109/93/25
f 14/16/25 111/10/25 110/94/25
f 13/25/25 112/9/25 111/10/25
f 11/30/25 109/93/25 112/9/25
f 14/16/3 114/96/3 113/95/3
f 16/29/3 115/97/3 114/96/3
f 15/26/3 116/98/3 115/97/3
f 13/25/3 113/95/3 116/98/3
f 16/29/9 118/2/9 117/5/9
f 2/33/9 119/1/9 118/2/9
f 1/31/9 120/6/9 119/1/9
f 15/26/9 117/5/9 120/6/9
f 122/14/24 124/7/24 123/8/24
f 125/81/7 128/82/7 127/83/7
f 129/11/26 132/84/26 131/4/26
f 133/86/4 136/87/4 135/88/4
f 137/90/5 140/91/5 139/92/5
f 141/94/25 144/10/25 143/9/25
f 145/96/3 148/97/3 147/98/3
f 149/2/9 152/1/9 151/6/9
f 99/84/1 132/84/1 129/11/1
f 106/90/3 137/90/3 138/89/3
f 120/6/25 151/6/25 152/1/25
f 99/84/24 100/4/24 131/4/24
f 105/89/2 138/89/2 139/92/2
f 107/91/1 140/91/1 137/90/1
f 114/96/24 145/96/24 146/95/24
f 93/80/4 94/81/4 125/81/4
f 107/91/26 108/92/26 139/92/26
f 113/95/2 146/95/2 147/98/2
f 93/80/2 126/80/2 127/83/2
f 115/97/1 148/97/1 145/96/1
f 95/82/1 128/82/1 125/81/1
f 101/85/25 102/86/25 133/86/25
f 115/97/5 116/98/5 147/98/5
f 96/83/9 127/83/9 128/82/9
f 101/85/2 134/85/2 135/88/2
f 103/87/1 136/87/1 133/86/1
f 109/93/9 110/94/9 141/94/9
f 90/14/26 122/14/26 121/79/26
f 104/88/7 135/88/7 136/87/7
f 109/93/2 142/93/2 143/9/2
f 89/79/2 121/79/2 123/8/2
f 111/10/1 144/10/1 141/94/1
o Cylinder.001
v 0.000000 3.000961 1.516516
v 0.000000 3.001199 -1.516491
v 0.114444 2.953557 1.516512
v 0.114444 2.953795 -1.516495
v 0.161848 2.839113 1.516503
v 0.161848 2.839352 -1.516503
v 0.114444 2.724670 1.516495
v 0.114444 2.724908 -1.516512
v 0.000000 2.677266 1.516491
v 0.000000 2.677504 -1.516516
v -0.114444 2.724670 1.516495
v -0.114444 2.724908 -1.516512
v -0.161848 2.839113 1.516503
v -0.161848 2.839352 -1.516503
v -0.114444 2.953557 1.516512
v -0.114444 2.953795 -1.516495
vn 0.3827 0.9239 0.0001
vn 0.9239 0.3827 -0.0000
vn 0.9239 -0.3827 -0.0000
vn 0.3827 -0.9239 -0.0001
vn -0.3827 -0.9239 -0.0001
vn -0.9239 -0.3827 -0.0000
vn -0.0000 0.0001 -1.0000
vn -0.9239 0.3827 -0.0000
vn -0.3827 0.9239 0.0001
vn -0.0000 -0.0001 1.0000
vt 1.000000 1.000000
vt 0.875000 0.500000
vt 1.000000 0.500000
vt 0.875000 1.000000
vt 0.750000 0.500000
vt 0.750000 1.000000
vt 0.625000 0.500000
vt 0.625000 1.000000
vt 0.500000 0.500000
vt 0.500000 1.000000
vt 0.375000 0.500000
vt 0.375000 1.000000
vt 0.250000 0.500000
vt 0.010000 0.250000
vt 0.250000 0.010000
vt 0.490000 0.250000
vt 0.250000 1.000000
vt 0.125000 0.500000
vt 0.125000 1.000000
vt 0.000000 0.500000
vt 0.919706 0.080294
vt 0.580294 0.080294
vt 0.580294 0.419706
vt 0.419706 0.419706
vt 0.250000 0.490000
vt 0.080294 0.419706
vt 0.080294 0.080294
vt 0.419706 0.080294
vt 0.000000 1.000000
vt 0.750000 0.490000
vt 0.919706 0.419706
vt 0.990000 0.250000
vt 0.750000 0.010000
vt 0.510000 0.250000
s 0
f 154/99/27 153/101/27 155/100/27
f 156/102/28 155/100/28 157/103/28
f 158/104/29 157/103/29 159/105/29
f 160/106/30 159/105/30 161/107/30
f 162/108/31 161/107/31 163/109/31
f 164/110/32 163/109/32 165/111/32
f 166/112/33 158/114/33 162/113/33
f 166/115/34 165/111/34 167/116/34
f 168/117/35 167/116/35 153/118/35
f 159/119/36 167/121/36 163/120/36
f 154/99/27 155/100/27 156/102/27
f 156/102/28 157/103/28 158/104/28
f 158/104/29 159/105/29 160/106/29
f 160/106/30 161/107/30 162/108/30
f 162/108/31 163/109/31 164/110/31
f 164/110/32 165/111/32 166/115/32
f 158/114/33 154/123/33 156/122/33
f 154/123/33 166/112/33 168/124/33
f 166/112/33 162/113/33 164/125/33
f 162/113/33 158/114/33 160/126/33
f 158/114/33 166/112/33 154/123/33
f 166/115/34 167/116/34 168/117/34
f 168/117/35 153/118/35 154/127/35
f 167/121/36 155/129/36 153/128/36
f 155/129/36 159/119/36 157/130/36
f 159/119/36 163/120/36 161/131/36
f 163/120/36 167/121/36 165/132/36
f 167/121/36 159/119/36 155/129/36
